Coordinates
version=1
nRows=4
nColumns=40
inDegrees=yes

Units are S.I. units (second, meters, Newtons, ...)
If the header above contains a line with 'inDegrees', this indicates whether rotational values are in degrees (yes) or radians (no).

endheader
time	pelvis_tilt	pelvis_list	pelvis_rotation	pelvis_tx	pelvis_ty	pelvis_tz	hip_flexion_r	hip_adduction_r	hip_rotation_r	knee_angle_r	knee_angle_r_beta	ankle_angle_r	subtalar_angle_r	mtp_angle_r	hip_flexion_l	hip_adduction_l	hip_rotation_l	knee_angle_l	knee_angle_l_beta	ankle_angle_l	subtalar_angle_l	mtp_angle_l	lumbar_extension	lumbar_bending	lumbar_rotation	arm_flex_r	arm_add_r	arm_rot_r	elbow_flex_r	pro_sup_r	wrist_flex_r	wrist_dev_r	arm_flex_l	arm_add_l	arm_rot_l	elbow_flex_l	pro_sup_l	wrist_flex_l	wrist_dev_l
      6.04999999999999982236	     31.13604201629092926851	      4.92113789533521739372	   -175.54509989546664883164	      0.32906754387793751837	      0.83515952926661118916	     -0.61910544961210223214	     54.39961157721283768751	     -5.96700046926584715123	    -11.64696965674754380871	     22.95032255934608045322	      0.40055869305532082469	      0.85862947843034664874	      0.00000000000000000000	      0.00000000000000000000	     56.69673982645637266842	     -6.21481855626918822111	      2.17868782686973538887	     23.24774309320680032442	      0.40574966063422968077	     -2.25368161150047363606	      0.00000000000000000000	      0.00000000000000000000	      1.73791516065865359053	      5.08277668458050868594	      0.83078244150621460840	     29.74622062829826774077	    -10.23403037091519607316	     71.56529762181588694148	      1.29866319951579378689	     81.45278285220490488427	      0.00000000000000000000	      0.00000000000000000000	     21.65442609396392725785	     -7.20360358473197059936	     84.45867394538041139640	      0.64458459650594357448	      3.07210174069625452375	      0.00000000000000000000	      0.00000000000000000000
      6.05499999999999971578	     31.13956022103042542426	      4.20222622484818142397	   -175.79665481866135223754	      0.32757349574617977694	      0.83569508179615970000	     -0.61886354462557546796	     54.52811121849017439445	     -6.39140827925818211241	    -11.35109931091538904013	     23.33516364073079074615	      0.40727543702241947310	      1.04989392167101169839	      0.00000000000000000000	      0.00000000000000000000	     56.17574626419491323759	     -5.91467635594591545356	      1.48368792772800373037	     22.83650158883515146613	      0.39857214236208970970	     -2.33198486907652968725	      0.00000000000000000000	      0.00000000000000000000	      2.31966974210902954212	      4.23686189397709611626	      1.23270093420914927940	     29.33325175510258020495	    -10.23438559233460054543	     69.08323123117669695148	      1.32104099685030340616	     83.78172963358815650281	      0.00000000000000000000	      0.00000000000000000000	     21.28989763942463397939	     -7.44380043509152322656	     85.89241350663959906342	      0.65264573000998626906	      2.94408574542544521080	      0.00000000000000000000	      0.00000000000000000000
      6.05999999999999960920	     30.95228293129493835067	      4.37163003111989123539	   -175.74617531176664897430	      0.32567845408314377575	      0.83673141951982854536	     -0.61834828467708291555	     53.94890994613231072208	     -6.29515785523907656085	    -11.67792060976199763900	     22.93214683440325174502	      0.40024146681113159651	      1.02786185954134978715	      0.00000000000000000000	      0.00000000000000000000	     55.82240534206349025226	     -6.00025117721030376572	      1.55961217337036561759	     22.74124041495880632624	      0.39690952122863271123	     -2.28222162081347423879	      0.00000000000000000000	      0.00000000000000000000	      2.76304777229923415049	      4.49740767209937430948	      0.96957435310107398241	     29.01689760344198987241	    -10.25784652395284624049	     68.91097902227090798988	      1.34247773408088200142	     83.89245909027886227705	      0.00000000000000000000	      0.00000000000000000000	     20.80630816542378980216	     -7.42808537664232382269	     85.32136301814759349327	      0.66109604940663047046	      2.90881114055625467074	      0.00000000000000000000	      0.00000000000000000000
      6.06500000000000039080	     30.78210406711268021240	      4.41341814164236900808	   -175.86224041332093293022	      0.32387623549646127330	      0.83757895540797933087	     -0.61835552744391864000	     53.45032644604459193260	     -6.11169795851647901230	    -11.76615731683529908480	     22.56511347345999851655	      0.39383552619801109884	      0.98528374475880364791	      0.00000000000000000000	      0.00000000000000000000	     55.48405223476615333311	     -6.15400419656402419832	      1.49992508582993577804	     22.73282126580510364988	      0.39676257935568409740	     -2.16267866094716065817	      0.00000000000000000000	      0.00000000000000000000	      3.21893399872987684418	      4.50790024222266172416	      1.03907260514910126936	     28.62964222836669492267	    -10.25544818663175483664	     67.81853591633783651105	      1.35763351590436887051	     84.17927129833793742364	      0.00000000000000000000	      0.00000000000000000000	     20.43276312871532596205	     -7.51509104150740725458	     85.48451221229460372797	      0.66397200188288529876	      3.00065284693592770893	      0.00000000000000000000	      0.00000000000000000000
